Cop Out (2010)(DivX)(Nl subs) RETAIL TBS       
  
 
Verenigde Staten
Actie / Komedie
107 minuten

geregisseerd door Kevin Smith
met Bruce Willis, Tracy Morgan en Seann William Scott

Twee ervaren partners van de New York Police Department moeten het opnemen tegen een meedogenloze crimineel in hun jacht op een zeldzaam honkbalkaartje. Voor veteraan Jimmy (Bruce Willis) is het kaartje zijn enige hoop te kunnen betalen voor de aankomende bruiloft van zijn dochter (Michelle Trachtenberg). Hij wordt bij deze bijzondere missie vergezeld door Paul (Tracy Morgan).

Storyline

After a clumsy operation trying to capture a drug dealer, the N.Y.P.D Detectives Jimmy Monroe and Paul Hodges are suspended for one month by their Captain Romans. Jimmy decides to sell his rare baseball card to pay for his daughter's expensive wedding while his jealous partner believes that his wife is cheating on him with their next-door neighbor. When Jimmy sells his card to a memorabilia store, the place is burgled by two small-time thieves and the detective loses his card. They track down the thieves. 



INFO

kwaliteit van de film is gewoon retail niets mis mee dus.
Categorie : Beeld 
Formaat : DivX 
Bron : Retail
Ondertitels : Nederlands (ingebakken)
Thanks : Tjappie078 

General

Format                           : AVI
Format/Info                      : Audio Video Interleave
Format profile                   : OpenDML
File size                        : 1.35 GiB
Duration                         : 1h 58mn
Overall bit rate                 : 1 625 Kbps
Writing application              : MEncoder Sherpya-MT-SVN-r31027-4.2.5
Writing library                  : MPlayer

Video
ID                               : 0
Format                           : MPEG-4 Visual
Format profile                   : Simple@L1
Format settings, BVOP            : No
Format settings, QPel            : No
Format settings, GMC             : No warppoints
Format settings, Matrix          : Default (H.263)
Codec ID                         : XVID
Codec ID/Hint                    : XviD
Duration                         : 1h 58mn
Bit rate                         : 1 272 Kbps
Width                            : 720 pixels
Height                           : 304 pixels
Display aspect ratio             : 2.35:1
Frame rate                       : 23.976 fps
Color space                      : YUV
Chroma subsampling               : 4:2:0
Bit depth                        : 8 bits
Scan type                        : Progressive
Bits/(Pixel*Frame)               : 0.242
Stream size                      : 1.05 GiB (78%)
Writing library                  : Lavc52.62.0

Audio
ID                               : 1
Format                           : AC-3
Format/Info                      : Audio Coding 3
Mode extension                   : CM (complete main)
Codec ID                         : 2000
Duration                         : 1h 47mn
Bit rate mode                    : Constant
Bit rate                         : 384 Kbps
Channel(s)                       : 6 channels
Channel positions                : Front: L C R, Side: L R, LFE
Sampling rate                    : 48.0 KHz
Bit depth                        : 16 bits
Stream size                      : 295 MiB (21%)
Alignment                        : Split accross interleaves
Interleave, duration             : 552 ms (13.23 video frames)
Interleave, preload duration     : 500 ms 
 
  
http://www.moviemeter.nl/film/58273 
http://www.imdb.com/title/tt1385867 


